<?xml version="1.0" encoding="UTF-8" standalone="no"?>
<!-- Created with Inkscape (http://www.inkscape.org/) -->

<svg
   version="1.1"
   id="svg1"
   width="480"
   height="480"
   viewBox="0 0 480 480"
   sodipodi:docname="logo.svg"
   inkscape:version="1.3.2 (091e20e, 2023-11-25, custom)"
   xmlns:inkscape="http://www.inkscape.org/namespaces/inkscape"
   xmlns:sodipodi="http://sodipodi.sourceforge.net/DTD/sodipodi-0.dtd"
   xmlns="http://www.w3.org/2000/svg"
   xmlns:svg="http://www.w3.org/2000/svg">
  <defs
     id="defs1">
    <clipPath
       clipPathUnits="userSpaceOnUse"
       id="clipPath2">
      <path
         d="M 45,39.6 H 324 V 316.8 H 45 Z"
         id="path2" />
    </clipPath>
    <clipPath
       clipPathUnits="userSpaceOnUse"
       id="clipPath4">
      <path
         d="M 45,39.6 H 324 V 316.8 H 45 Z"
         id="path4" />
    </clipPath>
    <clipPath
       clipPathUnits="userSpaceOnUse"
       id="clipPath6">
      <path
         d="M 45,39.6 H 324 V 316.8 H 45 Z"
         id="path6" />
    </clipPath>
    <clipPath
       clipPathUnits="userSpaceOnUse"
       id="clipPath8">
      <path
         d="M 45,39.6 H 324 V 316.8 H 45 Z"
         id="path8" />
    </clipPath>
    <clipPath
       clipPathUnits="userSpaceOnUse"
       id="clipPath10">
      <path
         d="M 45,39.6 H 324 V 316.8 H 45 Z"
         id="path10" />
    </clipPath>
    <clipPath
       clipPathUnits="userSpaceOnUse"
       id="clipPath12">
      <path
         d="M 45,39.6 H 324 V 316.8 H 45 Z"
         id="path12" />
    </clipPath>
    <clipPath
       clipPathUnits="userSpaceOnUse"
       id="clipPath14">
      <path
         d="M 45,39.6 H 324 V 316.8 H 45 Z"
         id="path14" />
    </clipPath>
    <clipPath
       clipPathUnits="userSpaceOnUse"
       id="clipPath16">
      <path
         d="M 45,39.6 H 324 V 316.8 H 45 Z"
         id="path16" />
    </clipPath>
    <clipPath
       clipPathUnits="userSpaceOnUse"
       id="clipPath18">
      <path
         d="M 45,39.6 H 324 V 316.8 H 45 Z"
         id="path18" />
    </clipPath>
    <clipPath
       clipPathUnits="userSpaceOnUse"
       id="clipPath20">
      <path
         d="M 45,39.6 H 324 V 316.8 H 45 Z"
         id="path20" />
    </clipPath>
  </defs>
  <sodipodi:namedview
     id="namedview1"
     pagecolor="#ffffff"
     bordercolor="#000000"
     borderopacity="0.25"
     inkscape:showpageshadow="2"
     inkscape:pageopacity="0.0"
     inkscape:pagecheckerboard="0"
     inkscape:deskcolor="#d1d1d1"
     inkscape:zoom="0.896875"
     inkscape:cx="157.77003"
     inkscape:cy="304.94774"
     inkscape:window-width="1920"
     inkscape:window-height="1057"
     inkscape:window-x="-8"
     inkscape:window-y="398"
     inkscape:window-maximized="1"
     inkscape:current-layer="g1">
    <inkscape:page
       x="0"
       y="0"
       inkscape:label="1"
       id="page1"
       width="480"
       height="480"
       margin="0"
       bleed="0" />
  </sodipodi:namedview>
  <g
     id="g1"
     inkscape:groupmode="layer"
     inkscape:label="1">
    <path
       id="path1"
       d="m 57.681818,66.827197 9.149208,0.111017 9.149207,0.338707 8.640918,0.544731 8.132629,0.736183 7.62434,0.91757 7.11605,1.091119 6.09947,1.150912 5.59118,1.265025 5.0829,1.359089 5.08289,1.599273 4.5746,1.6879 4.06632,1.739849 3.55802,1.744485 3.55803,1.992748 3.04973,1.943363 3.04974,2.202438 3.04974,2.511985 2.54144,2.375781 2.54145,2.682379 2.54145,3.048201 2.03315,2.751858 2.03316,3.08193 2.03316,3.47152 2.03315,3.93538 2.03316,4.49285 2.03316,5.16959 1.52487,4.41213 1.52486,4.95955 1.52487,5.60648 1.52487,6.3758 1.52487,7.29586 1.52487,8.40109 1.52486,9.73137 1.52487,11.32814 1.52487,13.22255 1.52487,15.40534 1.52487,17.75865 2.03315,26.89807 2.54145,33.78591 1.01658,10.3621 0.50829,3.8018 0.50829,2.65775 0.50829,1.38626 0.50829,0.0381 0.50829,-1.32648 0.50828,-2.64464 0.50829,-3.85902 1.01658,-10.73548 1.52487,-20.86636 3.04974,-44.1195 1.52486,-19.18244 1.52487,-16.60228 1.52487,-14.20012 1.52487,-12.11844 1.52487,-10.37014 1.52486,-8.92007 1.52487,-7.72089 1.52487,-6.72718 1.52487,-5.89988 1.52486,-5.20707 2.03316,-6.0501 2.03316,-5.21315 2.03316,-4.532178 2.03315,-3.972021 2.03316,-3.506541 2.03316,-3.116075 2.54144,-3.43638 2.54145,-3.012123 2.54145,-2.660082 2.54144,-2.364986 3.04974,-2.51181 3.04974,-2.214128 3.04973,-1.965285 3.55803,-2.029662 4.06631,-2.031315 4.06632,-1.777484 4.5746,-1.750288 5.08289,-1.690804 5.59119,-1.608785 6.09947,-1.512514 6.60776,-1.408632 7.62434,-1.387891 8.64092,-1.329609 3.04973,-0.418167 v 0"
       style="fill:none;stroke:#cb3c33;stroke-width:8;stroke-linecap:round;stroke-linejoin:round;stroke-miterlimit:10;stroke-dasharray:none;stroke-opacity:1"
       transform="matrix(1.3333333,0,0,-1.3333333,0,480)"
       clip-path="url(#clipPath2)" />
    <path
       id="path3"
       d="m 57.681818,66.358915 9.657497,0.115255 9.149207,0.326999 9.149208,0.55432 8.640918,0.756344 7.624342,0.8829 7.11605,1.036823 6.60776,1.179319 6.09947,1.307737 5.59118,1.417727 5.0829,1.503436 5.08289,1.744346 4.5746,1.81156 4.06632,1.834015 4.06631,2.076782 3.55803,2.043959 3.55802,2.282887 3.55803,2.549682 3.55802,2.845066 3.55803,3.168079 3.55802,3.515366 3.55803,3.880563 3.55802,4.25405 3.55803,4.62347 3.55802,4.97497 4.06632,6.0755 4.5746,7.2553 5.59118,9.32417 7.62434,13.20421 22.36473,39.01708 7.62434,12.75505 6.09947,9.79549 4.57461,6.94486 3.04973,4.24549 1.52487,1.86175 1.01658,1.00389 0.50829,0.32783 0.50829,-0.0957 v 0"
       style="fill:none;stroke:#389826;stroke-width:8;stroke-linecap:round;stroke-linejoin:round;stroke-miterlimit:10;stroke-dasharray:none;stroke-opacity:1"
       transform="matrix(1.3333333,0,0,-1.3333333,0,480)"
       clip-path="url(#clipPath4)" />
    <path
       id="path5"
       d="m 229.4836,111.55433 0.50829,-4.20078 1.01658,-5.49328 1.01658,-3.939245 1.01658,-3.15301 1.52487,-3.846611 1.52486,-3.158028 1.52487,-2.687378 2.03316,-3.057903 2.03316,-2.613408 2.03315,-2.27687 2.54145,-2.479635 2.54145,-2.159249 3.04973,-2.258696 3.04974,-1.969624 3.55802,-2.006606 3.55803,-1.753545 4.06631,-1.753985 4.57461,-1.715451 5.08289,-1.648821 5.59118,-1.563359 6.09947,-1.466558 6.60776,-1.364208 7.62435,-1.343577 8.64091,-1.287458 1.01658,-0.137635 v 0"
       style="fill:none;stroke:#389826;stroke-width:8;stroke-linecap:round;stroke-linejoin:round;stroke-miterlimit:10;stroke-dasharray:none;stroke-opacity:1"
       transform="matrix(1.3333333,0,0,-1.3333333,0,480)"
       clip-path="url(#clipPath6)" />
    <path
       id="path7"
       d="m 229.4836,131.68419 0.50829,5.17501 1.01658,7.44196 1.01658,5.88833 1.52487,7.45693 2.03315,8.5368 2.03316,7.59019 2.54145,8.65231 3.04973,9.58427 4.06632,11.956 6.60776,19.20273 0.50829,1.74253 0.50829,2.15758 v 0"
       style="fill:none;stroke:#389826;stroke-width:8;stroke-linecap:butt;stroke-linejoin:round;stroke-miterlimit:10;stroke-dasharray:29.6, 12.8;stroke-dashoffset:0;stroke-opacity:1"
       transform="matrix(1.3333333,0,0,-1.3333333,0,480)"
       clip-path="url(#clipPath8)" />
    <path
       id="path9"
       d="m 57.681818,65.738646 10.165786,0.116367 9.657497,0.331187 9.149208,0.52555 8.640918,0.705339 8.132633,0.873778 7.62433,1.031884 7.11606,1.17872 6.60776,1.311546 6.09947,1.426002 5.59118,1.51646 5.59118,1.745512 5.0829,1.811813 5.08289,2.051879 4.5746,2.072797 4.57461,2.304949 4.5746,2.551737 4.5746,2.808752 4.57461,3.069804 4.5746,3.327318 5.08289,3.98455 5.0829,4.26078 5.59118,4.96279 6.60776,6.16486 8.13263,7.90605 11.69065,11.70775 31.51394,31.69657 12.19894,11.8992 9.6575,9.12644 6.60776,5.97654 4.06632,3.4404 2.54144,1.89771 1.01658,0.58443 0.50829,0.14931 v 0"
       style="fill:none;stroke:#4063d8;stroke-width:8;stroke-linecap:round;stroke-linejoin:round;stroke-miterlimit:10;stroke-dasharray:none;stroke-opacity:1"
       transform="matrix(1.3333333,0,0,-1.3333333,0,480)"
       clip-path="url(#clipPath10)" />
    <path
       id="path11"
       d="m 239.64939,94.368419 0.50829,-3.220912 1.01658,-3.883069 1.01658,-2.72144 1.01657,-2.168763 1.52487,-2.648497 1.52487,-2.183706 2.03316,-2.437151 2.03315,-2.058776 2.54145,-2.195085 2.54145,-1.883785 3.04973,-1.952329 3.04974,-1.693086 3.55802,-1.720476 4.06632,-1.702477 4.5746,-1.651751 5.0829,-1.578674 5.59118,-1.491415 6.09947,-1.396215 7.11605,-1.38967 8.13263,-1.341774 5.59118,-0.800476 v 0"
       style="fill:none;stroke:#4063d8;stroke-width:8;stroke-linecap:round;stroke-linejoin:round;stroke-miterlimit:10;stroke-dasharray:none;stroke-opacity:1"
       transform="matrix(1.3333333,0,0,-1.3333333,0,480)"
       clip-path="url(#clipPath12)" />
    <path
       id="path13"
       d="m 239.64939,104.58997 0.50829,3.76789 1.01658,4.97706 1.01658,3.81547 1.52486,4.75848 2.03316,5.38423 2.03316,4.744 2.54144,5.36188 3.04974,5.87527 3.55803,6.32657 4.06631,6.74377 4.5746,7.14716 5.59119,8.29389 7.11605,10.11205 9.65749,13.68205 1.52487,2.4483 0.50829,0.9737 v 0"
       style="fill:none;stroke:#4063d8;stroke-width:8;stroke-linecap:butt;stroke-linejoin:round;stroke-miterlimit:10;stroke-dasharray:29.6, 12.8;stroke-dashoffset:0;stroke-opacity:1"
       transform="matrix(1.3333333,0,0,-1.3333333,0,480)"
       clip-path="url(#clipPath14)" />
    <path
       id="path15"
       d="m 57.681818,65.19545 10.165786,0.107293 10.165786,0.326542 9.657497,0.526244 9.149208,0.712092 8.640915,0.887338 8.13263,1.052949 7.62434,1.20783 7.11605,1.349003 6.60776,1.471858 6.09947,1.570616 6.09948,1.798142 5.59118,1.868307 5.59118,2.096181 5.59118,2.337976 5.59118,2.588806 5.59119,2.841949 5.59118,3.089407 6.09947,3.635896 6.60776,4.219749 7.11605,4.820542 8.13263,5.78336 10.16579,7.51419 15.24868,11.58729 38.1217,29.06806 15.24867,11.31082 11.18237,8.04434 7.62434,5.22748 4.06631,2.54826 1.01658,0.55949 v 0"
       style="fill:none;stroke:#9558b2;stroke-width:8;stroke-linecap:round;stroke-linejoin:round;stroke-miterlimit:10;stroke-dasharray:none;stroke-opacity:1"
       transform="matrix(1.3333333,0,0,-1.3333333,0,480)"
       clip-path="url(#clipPath16)" />
    <path
       id="path17"
       d="m 245.74886,88.495403 0.50829,-3.580081 0.50829,-1.976287 1.01658,-2.752922 1.01658,-2.044316 1.52486,-2.407605 1.52487,-1.942685 2.03316,-2.141899 2.03316,-1.796633 2.54144,-1.908924 2.54145,-1.636207 3.04974,-1.696476 3.55802,-1.701101 4.06632,-1.666345 4.5746,-1.604835 5.08289,-1.526038 5.59118,-1.436944 6.09948,-1.342663 7.11605,-1.335219 8.13263,-1.289182 3.04973,-0.430216 v 0"
       style="fill:none;stroke:#9558b2;stroke-width:8;stroke-linecap:round;stroke-linejoin:round;stroke-miterlimit:10;stroke-dasharray:none;stroke-opacity:1"
       transform="matrix(1.3333333,0,0,-1.3333333,0,480)"
       clip-path="url(#clipPath18)" />
    <path
       id="path19"
       d="m 245.74886,92.823578 0.50829,3.990898 1.01658,4.302384 1.01658,3.1528 1.52487,3.86495 2.03315,4.32669 2.03316,3.78799 2.54145,4.26301 3.04973,4.65432 3.55803,4.99548 4.06631,5.30737 4.57461,5.60346 5.59118,6.46708 6.09947,6.70884 7.62434,8.03174 10.16579,10.34985 8.64091,8.85582 1.52487,1.68066 v 0"
       style="fill:none;stroke:#9558b2;stroke-width:8;stroke-linecap:butt;stroke-linejoin:round;stroke-miterlimit:10;stroke-dasharray:29.6, 12.8;stroke-dashoffset:0;stroke-opacity:1"
       transform="matrix(1.3333333,0,0,-1.3333333,0,480)"
       clip-path="url(#clipPath20)" />
  </g>
</svg>
